<svg width="42" height="42" viewBox="0 0 42 42" fill="none" xmlns="http://www.w3.org/2000/svg">
<path d="M41.5947 22.1142C41.5547 22.5426 41.5196 22.9734 41.477 23.4018C41.0086 28.3315 39.0297 32.5698 35.5353 36.0692C32.3315 39.278 28.4564 41.2068 23.9625 41.8732C23.9325 41.8782 23.8999 41.8782 23.8398 41.8807C23.8398 37.0161 23.8398 32.1565 23.8398 27.2694C25.3903 27.2694 26.9359 27.2694 28.534 27.2694C28.7945 25.3356 29.0525 23.4243 29.3131 21.478C27.4694 21.478 25.6684 21.478 23.8623 21.478C23.8398 21.4179 23.8147 21.3778 23.8172 21.3402C23.8348 20.0902 23.8072 18.8353 23.8974 17.5903C23.9375 17.0267 24.1379 16.4431 24.4009 15.9371C24.8267 15.1205 25.5832 14.6946 26.505 14.6621C27.4995 14.627 28.4964 14.6545 29.5034 14.6545C29.521 14.4817 29.5385 14.4015 29.5385 14.3214C29.541 12.8886 29.536 11.4557 29.5435 10.0254C29.546 9.79998 29.4834 9.71982 29.2529 9.68225C27.7224 9.43927 26.1969 9.16623 24.6338 9.31903C23.2035 9.4568 21.8108 9.70479 20.5984 10.5414C19.0654 11.601 18.2412 13.134 17.8455 14.9C17.6751 15.659 17.6351 16.4531 17.6125 17.2346C17.5749 18.5171 17.6025 19.8022 17.6025 21.0847C17.6025 21.1999 17.6025 21.3127 17.6025 21.4579C15.8866 21.4579 14.2033 21.4579 12.4924 21.4579C12.4924 23.3918 12.4924 25.2955 12.4924 27.2368C14.1707 27.2368 15.854 27.2368 17.5599 27.2368C17.5599 32.1064 17.5599 36.9359 17.5599 41.8256C16.8861 41.6703 16.2323 41.545 15.591 41.3697C8.16891 39.3281 2.48772 33.4541 0.922132 25.9292C-0.553274 18.8328 1.23525 12.5479 6.23009 7.26499C9.46897 3.83824 13.5044 1.86685 18.1686 1.18551C18.7022 1.10786 19.2457 1.08281 19.7843 1.03021C19.877 1.02019 19.9671 0.995137 20.0573 0.975098C20.6936 0.975098 21.3323 0.975098 21.9686 0.975098C22.5021 1.03522 23.0357 1.08782 23.5692 1.15545C28.2259 1.75163 32.2363 3.70297 35.5453 7.017C39.0297 10.5064 41.0061 14.7322 41.477 19.6494C41.5196 20.0877 41.5572 20.5286 41.5973 20.967C41.5947 21.3502 41.5947 21.731 41.5947 22.1142Z" fill="white"/>
</svg>
