<svg width="42" height="42" viewBox="0 0 42 42" fill="none" xmlns="http://www.w3.org/2000/svg">
<path d="M41.874 21.427C41.8439 32.9522 32.3978 42.1303 21.0505 42.0025C9.87597 41.8773 0.635268 32.6917 0.710416 21.2792C0.783059 9.93433 10.164 0.681105 21.6116 0.853945C32.6082 1.01927 41.8339 9.99696 41.874 21.427ZM7.94717 21.4896C7.94467 21.4896 7.94216 21.4896 7.93966 21.4896C7.93966 23.3458 7.94717 25.2019 7.93715 27.0581C7.92964 28.6988 8.36049 30.2118 9.31236 31.5444C10.8855 33.7462 13.0522 34.8559 15.7601 34.8659C19.3947 34.8785 23.0294 34.871 26.6665 34.8659C27.0298 34.8659 27.3955 34.8484 27.7587 34.8133C31.5812 34.4601 34.6473 31.0885 34.6473 27.2434C34.6473 23.4635 34.6498 19.686 34.6448 15.9061C34.6423 14.2553 34.1864 12.7374 33.2119 11.4047C31.6689 9.29557 29.5673 8.1934 26.9546 8.16835C23.2749 8.13579 19.5951 8.15833 15.9179 8.16334C15.5421 8.16334 15.1664 8.18338 14.7932 8.21845C11.0633 8.57666 8.01981 11.8381 7.95719 15.5855C7.91962 17.5543 7.94717 19.5232 7.94717 21.4896Z" fill="white"/>
<path d="M21.3085 10.6996C23.1872 10.6996 25.0634 10.6996 26.9421 10.6996C29.9305 10.7021 32.1649 12.929 32.1674 15.9099C32.1699 19.7199 32.1749 23.5324 32.1699 27.3424C32.1674 30.163 29.943 32.4325 27.1174 32.45C23.2298 32.475 19.3421 32.475 15.4545 32.4525C12.6389 32.435 10.4095 30.1505 10.407 27.3349C10.4045 23.5124 10.4045 19.6899 10.407 15.8673C10.407 12.9766 12.6464 10.7197 15.5446 10.6996C17.4634 10.6896 19.3847 10.6996 21.3085 10.6996ZM14.3698 21.5786C14.3748 25.4287 17.4509 28.5047 21.296 28.5047C25.1411 28.5022 28.2221 25.4036 28.2221 21.531C28.2221 17.7185 25.0859 14.6474 21.1983 14.6524C17.4434 14.6574 14.3648 17.7786 14.3698 21.5786ZM26.8344 14.4019C26.8394 15.2987 27.5809 16.0301 28.4651 16.0151C29.3493 16.0001 30.0908 15.2361 30.0733 14.3644C30.0532 13.4851 29.3293 12.7812 28.4451 12.7812C27.5383 12.7812 26.8294 13.4952 26.8344 14.4019Z" fill="white"/>
<path d="M16.8147 21.5787C16.8072 19.1288 18.7961 17.1124 21.2359 17.1024C23.7409 17.0898 25.7724 19.0888 25.7774 21.5712C25.7824 24.0335 23.7759 26.0575 21.3261 26.0625C18.8086 26.0675 16.8222 24.0936 16.8147 21.5787Z" fill="white"/>
</svg>
