<svg width="720" height="171" viewBox="0 0 720 171" fill="none" xmlns="http://www.w3.org/2000/svg">
<mask id="mask0_367_920" style="mask-type:alpha" maskUnits="userSpaceOnUse" x="0" y="0" width="720" height="171">
<rect y="0.914062" width="719.5" height="169.356" fill="#D9D9D9"/>
</mask>
<g mask="url(#mask0_367_920)">
<path d="M192.26 96.5186L192.26 96.5185C186.49 96.1544 181.734 94.692 178.442 92.3999C175.138 90.0996 173.296 86.9475 173.45 83.2684C173.604 79.5805 175.659 76.5354 179.126 74.4227C182.581 72.3172 187.448 71.1253 193.318 71.0865L193.321 71.5865L193.318 71.0865C203.426 71.0214 213.547 71.0298 223.663 71.0381C232.586 71.0455 241.504 71.0529 250.405 71.0099C257.64 70.9717 263.317 69.743 267.144 67.5959C270.95 65.4609 272.902 62.4402 272.818 58.7463C272.723 55.0297 270.681 52.0892 266.814 50.0518C262.924 48.0023 257.21 46.8866 249.892 46.8866H249.56H249.228H248.896H248.563H248.231H247.899H247.567H247.234H246.902H246.57H246.237H245.905H245.573H245.241H244.908H244.576H244.244H243.912H243.579H243.247H242.915H242.583H242.25H241.918H241.586H241.254H240.921H240.589H240.257H239.925H239.592H239.26H238.928H238.596H238.263H237.931H237.599H237.267H236.934H236.602H236.27H235.938H235.605H235.273H234.941H234.608H234.276H233.944H233.612H233.279H232.947H232.615H232.283H231.95H231.618H231.286H230.954H230.621H230.289H229.957H229.625H229.292H228.96H228.628H228.296H227.963H227.631H227.299H226.967H226.634H226.302H225.97H225.638H225.305H224.973H224.641H224.309H223.976H223.644H223.312H222.979H222.647H222.315H221.983H221.65H221.318H220.986H220.654H220.321H219.989H219.657H219.325H218.992H218.66H218.328H217.996H217.663H217.331H216.999H216.667H216.334H216.002H215.67H215.338H215.005H214.673H214.341H214.009H213.676H213.344H213.012H212.679H212.347H212.015H211.683H211.35H211.018H210.686H210.354H210.021H209.689H209.357H209.025H208.692H208.36H208.028H207.696H207.363H207.031H206.699H206.367H206.034H205.702H205.37H205.038H204.705H204.373H204.041H203.709H203.376H203.044H202.712H202.379H202.047H201.715H201.383H201.05H200.718H200.386H200.054H199.721H199.389H199.057H198.725H198.392H198.06H197.728H197.396H197.063H196.731H196.399H196.067H195.734H195.402H195.07H194.738H194.405H194.073H193.741H193.409H193.076H192.744H192.412H192.079H191.747H191.415H191.083H190.75H190.418H190.086H189.754H189.421H189.089H188.757H188.425H188.092H187.76H187.428H187.096H186.763H186.431H186.099H185.767H185.434H185.102H184.77H184.438H184.105H183.773H183.441H183.109H182.776H182.444H182.112H181.78H181.447H181.115H180.783H180.45H180.118H179.786H179.454H179.121H178.789H178.457H178.125H177.792H177.46H177.128H176.796H176.463H176.131H175.799H175.467H175.134H174.802H174.47H174.138H173.805H173.473H173.141H172.809H172.476H172.144H171.812H171.48H171.147H170.815H170.483H170.15H169.818H169.486H169.154H168.821H168.489H168.157H167.825H167.492H167.16H166.828H166.496H166.163H165.831H165.499H165.167H164.834H164.502H164.17H163.838H163.505H163.173H162.841H162.509H162.176H161.844H161.512H161.18H160.847H160.515H160.183H159.85H159.518H159.186H158.854H158.521H158.189H157.857H157.525H157.192H156.86H156.528H156.196H155.863H155.531H155.199H154.867H154.534H154.202H153.87H153.538H153.205H152.873H152.541H152.209H151.876H151.544H151.212H150.88H150.547H150.215H149.883H149.551H149.218H148.886H148.554H148.221H147.889H147.557H147.225H146.892H146.56H146.228H145.896H145.563H145.231H144.899H144.567H144.234H143.902H143.57H143.238H142.905H142.573H142.241H141.909H141.576H141.244H140.912H140.58H140.247H139.915H139.583H139.251H138.918H138.586H138.254H137.922H137.589H137.257H136.925H136.592H136.26H135.928H135.596H135.263H134.931H134.599H134.267H133.934H133.602H133.27H132.938H132.605H132.273H131.941H131.609H131.276H130.944H130.612H130.28H129.947H129.615H129.283H128.951H128.618H128.286H127.954H127.622H127.289H126.957H126.625H126.292H125.96H125.628H125.296H124.963H124.631H124.299H123.967H123.634H123.302H122.97H122.638H122.305H121.973H121.641H121.309H120.976H120.644H120.312H119.98H119.647H119.315H118.983H118.651H118.318H117.986H117.654H117.322H116.989H116.657H116.325H115.993H115.66H115.328H114.996H114.663H114.331H113.999H113.667H113.334H113.002H112.67H112.338H112.005H111.673H111.341H111.009H110.676H110.344H110.012H109.68H109.347H109.015H108.683H108.351H108.018H107.686H107.354H107.022H106.689H106.357H106.025H105.693H105.36H105.028H104.696H104.363H104.031H103.699H103.367H103.034H102.702H102.37H102.038H101.705H101.373H101.041H100.709H100.376H100.044H99.7119H99.3796H99.0474H98.7151H98.3829H98.0506H97.7183H97.3861H97.0538H96.7216H96.3893H96.0571H95.7248H95.3925H95.0603H94.728H94.3958H94.0635H93.7312H93.399H93.0667H92.7345H92.4022H92.07H91.7377H91.4054H91.0732H90.7409H90.4087H90.0764H89.7442H89.4119H89.0796H88.7474H88.4151H88.0829H87.7506H87.4184H87.0861H86.7538H86.4216H86.0893H85.7571H85.4248H85.0925H84.7603H84.428H84.0958H83.7635H83.4313H83.099H82.7667H82.4345H82.1022H81.77H81.4377H81.1055H80.7732H80.4409H80.1087H79.7764H79.683C23.0088 46.8866 -33.6652 46.8866 -90.3392 46.9173L-90.3395 46.9173C-91.0819 46.9173 -91.8185 46.8993 -92.5494 46.8814C-94.0536 46.8447 -95.5341 46.8085 -96.9939 46.9309L-96.9959 46.9311C-102.206 47.3477 -106.471 48.8035 -109.409 50.9435C-112.338 53.0775 -113.934 55.877 -113.892 59.0334L192.26 96.5186ZM192.26 96.5186C194.39 96.6512 196.552 96.6259 198.7 96.6008C199.553 96.5908 200.404 96.5809 201.249 96.5809C220.623 96.5809 239.997 96.5802 259.371 96.5796C336.992 96.5772 414.613 96.5747 492.233 96.6116C493.326 96.6116 494.407 96.5825 495.483 96.5535C497.001 96.5126 498.511 96.472 500.033 96.5136C502.601 96.5838 505.081 96.8908 507.388 97.8178C511.349 99.4092 514.11 101.398 515.596 103.679C517.064 105.934 517.324 108.527 516.179 111.451L516.645 111.633M192.26 96.5186L516.645 111.633M516.645 111.633L516.179 111.451C513.746 117.679 506.879 120.382 497.251 120.367C472.778 120.342 448.304 120.357 423.832 120.372C417.712 120.375 411.593 120.379 405.473 120.382C405.105 120.382 404.734 120.38 404.362 120.379C403.614 120.375 402.86 120.372 402.11 120.382M516.645 111.633L402.114 120.882M480.78 161.278L480.781 161.277C481.668 159.289 481.823 157.376 481.376 155.62C480.928 153.861 479.867 152.226 478.267 150.817C475.06 147.993 469.72 146.113 463.07 146.045L463.075 145.545L463.069 146.045C449.65 145.902 436.223 145.936 422.795 145.97C416.08 145.987 409.365 146.004 402.652 145.999C395.243 145.999 389.265 144.863 385.082 142.731C380.884 140.591 378.455 137.418 378.301 133.386M480.78 161.278L402.114 120.882M480.78 161.278C478.001 167.545 471.021 169.8 461.397 169.769C434.854 169.691 408.312 169.703 381.779 169.715C372.133 169.719 362.488 169.723 352.844 169.723C343.248 169.723 333.653 169.726 324.057 169.728C300.08 169.735 276.101 169.741 252.11 169.708C245.551 169.7 240.333 168.553 236.753 166.54C233.191 164.536 231.273 161.693 231.199 158.234V158.233M480.78 161.278L231.199 158.233M378.301 133.386L378.801 133.367L378.301 133.386C378.301 133.386 378.301 133.386 378.301 133.386ZM378.301 133.386C378.145 129.41 380.585 126.151 384.771 123.911C388.952 121.674 394.941 120.405 402.11 120.382M402.11 120.382C402.109 120.382 402.108 120.382 402.107 120.382L402.114 120.882M402.11 120.382C402.111 120.382 402.112 120.382 402.113 120.382L402.114 120.882M231.199 158.233C231.115 154.585 233.013 151.567 236.634 149.426C240.273 147.275 245.634 146.029 252.358 145.999C260.667 145.963 268.981 145.971 277.297 145.978C286.893 145.987 296.492 145.995 306.086 145.938C313.051 145.899 318.61 144.673 322.409 142.425C326.232 140.161 328.28 136.85 328.127 132.735C327.984 128.863 325.757 125.754 321.926 123.637C318.11 121.527 312.681 120.382 306.015 120.382C255.871 120.364 205.719 120.362 155.568 120.36C122.15 120.359 88.7337 120.357 55.3207 120.351C54.3204 120.351 53.3195 120.374 52.3233 120.396C49.5572 120.458 46.8271 120.519 44.2484 120.097C39.6119 119.337 35.9668 117.959 33.4934 115.968C31.0398 113.992 29.7192 111.4 29.7299 108.123C29.7404 105.058 31.3794 102.279 34.2624 100.223C37.1489 98.1642 41.2673 96.8476 46.1485 96.7495C56.771 96.5492 67.3917 96.5543 78.0166 96.5595C85.2908 96.563 92.567 96.5666 99.847 96.5042L99.8475 96.5042M231.199 158.233L99.8475 96.5042M99.8475 96.5042C109.592 96.4115 116.725 93.1445 118.885 86.2312C119.86 83.1438 119.41 80.359 117.683 77.9712C115.974 75.6082 113.046 73.6755 109.137 72.1779L109.136 72.1776M99.8475 96.5042L109.136 72.1776M109.136 72.1776C106.992 71.36 104.746 71.0839 102.499 71.0082C101.12 70.9617 99.7053 70.9913 98.3115 71.0204C97.459 71.0382 96.6142 71.0559 95.7894 71.0559C59.3094 71.0375 22.8291 71.0356 -13.6511 71.0338C-37.9747 71.0326 -62.2983 71.0313 -86.6217 71.0252H-86.6218M109.136 72.1776L-86.6218 71.0252M-86.6218 71.0252C-87.4459 71.0252 -88.2701 71.0319 -89.0931 71.0385C-92.0082 71.062 -94.9098 71.0855 -97.7494 70.8127L-97.7494 70.8127M-86.6218 71.0252L-97.7494 70.8127M-97.7494 70.8127C-102.807 70.3277 -106.837 68.9103 -109.6 66.8508M-97.7494 70.8127L-109.6 66.8508M-109.6 66.8508C-112.353 64.7991 -113.85 62.1144 -113.892 59.0336L-109.6 66.8508Z" stroke="white" stroke-opacity="0.1"/>
<path d="M422.923 0.954032C336.311 0.954032 249.699 0.954032 163.086 0.954032C140.612 0.954032 127.614 5.43263 127.306 13.3009C127.032 21.1385 140.065 26.0005 162.3 26.0772C191.341 26.1693 220.417 26.0312 249.493 26.1539C267.247 26.2306 278.638 30.8779 279.083 37.8566C279.527 44.8046 268.513 49.866 251.067 50.5869C246.552 50.771 241.968 50.6482 237.384 50.6482C89.2332 50.6482 -58.9177 50.6329 -207.069 50.6789C-214.936 50.6789 -223.214 50.0041 -230.5 51.9213C-242.747 55.1422 -248.014 60.081 -244.354 66.2007C-240.455 72.7346 -229.508 75.4493 -214.731 75.434C-168.004 75.4033 -121.277 75.434 -74.5503 75.4494C-72.84 75.4494 -71.1296 75.434 -69.4193 75.4494C-47.6636 75.4954 -33.365 80.4954 -33.8097 87.9342C-34.2543 95.5417 -47.7319 100.066 -70.2402 100.066C-100.992 100.082 -131.779 99.8977 -162.531 100.112C-183.089 100.25 -195.951 107.72 -190.273 116.048C-185.826 122.613 -174.709 124.867 -159.965 124.837C-104.687 124.729 -49.4081 124.791 5.8363 124.791C57.1127 124.791 108.389 124.821 159.7 124.775C179.882 124.76 192.162 120.159 192.402 112.812C192.675 105.082 180.019 100.128 159.323 100.066C131.958 99.9897 104.626 100.112 77.2607 100.005C56.1208 99.9284 43.9089 95.1276 44.3535 87.3207C44.764 80.0046 57.147 75.4494 77.3633 75.4494C204.99 75.4187 332.651 75.434 460.277 75.4186C465.956 75.4186 471.874 75.7408 477.313 75.1579C491.611 73.6242 500.163 69.5597 500.129 62.6884C500.094 56.1698 489.456 51.0164 474.302 50.817C446.971 50.4795 419.605 50.7249 392.274 50.5716C377.496 50.4795 367.063 47.2433 363.916 40.6481C361.077 34.7584 366.55 30.1724 378.351 27.2122C384.68 25.6324 391.692 26.1232 398.465 26.1232C491.337 26.0926 584.21 26.1079 677.082 26.0926C682.76 26.0926 688.541 26.2306 694.151 25.8778C709.784 24.8962 719.362 20.1262 719.499 13.6077C719.636 6.90507 709.1 1.84362 692.988 1.00004C689.636 0.81599 686.147 0.98469 682.76 0.98469C596.148 0.954015 509.536 0.954032 422.923 0.954032Z" fill="#D9D9D9" fill-opacity="0.05"/>
</g>
</svg>
