<svg width="309" height="214" viewBox="0 0 309 214" fill="none" xmlns="http://www.w3.org/2000/svg">
<path d="M57.6079 45.6382L57.6418 45.8485H57.8547H114.772C115.718 45.8485 116.519 45.5567 117.132 44.9274C117.738 44.3044 118.134 43.3757 118.329 42.147L118.344 42.057L118.297 41.9789C116.062 38.2596 112.969 33.8885 110.437 30.4507C109.17 28.731 108.043 27.2434 107.233 26.1857C106.828 25.6568 106.502 25.2353 106.277 24.946C106.164 24.8013 106.077 24.6897 106.018 24.6142L105.951 24.5284L105.934 24.5065L105.929 24.501L105.928 24.4996L105.928 24.4992C105.928 24.4992 105.928 24.4991 105.731 24.6537L105.928 24.4991L105.671 24.173L105.503 24.5522L99.0749 39.0214H56.8361H56.5426L56.5893 39.3111L57.6079 45.6382ZM74.8524 5.94867L74.7467 6.07545L74.8218 6.22246C78.3704 13.1714 81.6709 24.9152 81.7977 35.1292L81.7987 35.2053L81.8419 35.268C83.1001 37.0923 84.4032 38.1841 85.6815 38.6397C86.9706 39.0993 88.2077 38.9018 89.2918 38.2032C91.4346 36.8223 92.9659 33.502 93.3268 29.4484C94.0518 21.305 90.0846 9.95932 76.4127 4.35025L76.2431 4.28069L76.1258 4.42145L74.8524 5.94867ZM34.7068 136.032L34.7568 135.996L34.501 135.637L34.3241 136.041L30.1877 145.491H17.3634H17.0757L17.1158 145.776L18.0071 152.103L18.0374 152.318H18.2547H39.3917C40.2787 152.318 41.0498 152.023 41.6291 151.392C42.2029 150.766 42.5655 149.835 42.6962 148.604L42.7044 148.527L42.6679 148.459C41.1981 145.722 39.2194 142.605 37.6106 140.176C36.8057 138.961 36.0925 137.916 35.5804 137.175C35.3244 136.805 35.1186 136.51 34.9768 136.308C34.9059 136.207 34.851 136.129 34.8137 136.077L34.7714 136.017L34.7605 136.002L34.7578 135.998L34.7571 135.997L34.7569 135.996C34.7569 135.996 34.7568 135.996 34.7068 136.032ZM14.9394 183.672V133.793L15.0573 133.995L15.2794 133.662C20.9102 125.22 23.9105 114.816 25.5049 104.572C27.0996 94.3248 27.2905 84.2184 27.2905 76.3612V67.2297H31.6291V113.451C31.6291 117.261 31.8482 120.046 32.7365 121.878C33.186 122.805 33.8096 123.495 34.6623 123.95C35.5104 124.402 36.5657 124.61 37.8637 124.61H40.9197H40.9404C42.1922 124.61 43.2678 124.61 44.2349 124.444V183.672H14.9394ZM48.7613 50.0326L48.5216 49.7049L48.3369 50.0665L43.0586 60.4026H40.6603V29.4853H58.746C59.7498 29.4853 60.6139 29.1975 61.2601 28.5691C61.9036 27.9433 62.3013 27.0084 62.4326 25.7709L62.4414 25.6876L62.3983 25.6158C60.1654 21.8992 57.201 17.53 54.7967 14.0925C53.5942 12.3732 52.5311 10.8859 51.7685 9.82835C51.3873 9.29957 51.0811 8.8782 50.8702 8.58897C50.7648 8.44435 50.6832 8.33277 50.6279 8.2573L50.565 8.17158L50.549 8.14976L50.5449 8.14424L50.5439 8.14284L50.5436 8.14248C50.5436 8.1424 50.5435 8.14235 50.3422 8.29053L50.5435 8.14235L50.2884 7.7957L50.1137 8.18903L43.6858 22.6583H1.06494H0.771472L0.81812 22.948L1.83677 29.2751L1.87062 29.4853H2.08359H18.2593V60.4026H15.5397L5.03919 52.1652L4.63488 51.8481V52.3619V208.575V208.825H4.88488H6.54019C8.78256 208.825 10.8754 207.754 12.4009 206.447C13.1653 205.792 13.7949 205.072 14.2354 204.384C14.6714 203.704 14.9394 203.028 14.9394 202.467V190.499H44.2349V204.648V204.898H44.4849H46.0129C47.8752 204.898 50.0611 203.824 51.7776 202.588C52.6409 201.965 53.3992 201.292 53.9526 200.673C54.2292 200.363 54.4582 200.063 54.6237 199.786C54.7866 199.513 54.9 199.243 54.9206 198.997L54.9214 198.986V198.976V70.2112C57.4378 69.3018 59.3413 67.5522 60.1211 65.7709L60.1787 65.6391L60.0938 65.523L48.7613 50.0326ZM69.1919 47.7861L68.8404 47.5675L68.8105 47.9804C67.283 69.1373 63.0828 100.966 56.0894 122.1L56.054 122.207L56.1108 122.304L57.5115 124.704L57.7231 125.067L57.9411 124.708C64.3202 114.206 69.5913 100.983 73.5183 87.7142C74.9196 92.5129 75.9404 97.8354 75.9404 102.76V102.835L75.9811 102.897C76.9034 104.311 77.8722 105.217 78.8406 105.671C79.8171 106.129 80.7802 106.119 81.6549 105.726C83.3803 104.949 84.6992 102.713 85.238 99.8338C86.3155 94.0746 84.3349 85.4756 75.8413 79.5293C77.583 73.1224 79.0803 66.9308 80.3332 61.5695C81.7832 61.6419 82.8125 61.3623 83.5611 60.7352C84.3385 60.0839 84.7689 59.0933 85.0906 57.8804L85.138 57.7017L84.981 57.604L69.1919 47.7861ZM99.5216 87.4844C102.725 94.3661 105.637 103.037 106.501 111.078L106.509 111.152L106.556 111.209C107.754 112.679 108.958 113.511 110.115 113.776C111.283 114.045 112.367 113.728 113.29 112.977C115.114 111.492 116.325 108.309 116.518 104.464C116.902 96.786 113.243 86.2319 101.831 80.3794C103.819 73.9835 105.564 67.999 106.944 62.2239C108.397 62.2965 109.455 62.0171 110.219 61.3914C111.016 60.7386 111.446 59.745 111.706 58.5227L111.741 58.3551L111.598 58.2615L95.5541 47.7891L95.2006 47.5583L95.1682 47.9792C93.6409 67.8248 89.3138 96.8164 82.449 115.985L82.4097 116.095L82.4684 116.195L82.5898 116.403L80.0457 116.04L79.7604 115.999V116.287V140.473H56.5814H56.2879L56.3346 140.763L57.3532 147.09L57.3871 147.3H57.6001H79.7604V209.448V209.698H80.0104H82.175C84.3995 209.698 86.8004 208.804 88.6409 207.67C89.5628 207.102 90.3547 206.467 90.9196 205.842C91.4752 205.227 91.8475 204.581 91.8475 203.994V147.3H116.936C117.881 147.3 118.713 147.01 119.342 146.381C119.967 145.756 120.364 144.823 120.496 143.586L120.505 143.501L120.46 143.428C118.163 139.711 115.103 135.342 112.619 131.904C111.376 130.185 110.278 128.697 109.489 127.64C109.095 127.111 108.778 126.69 108.56 126.4C108.451 126.256 108.367 126.144 108.309 126.069L108.244 125.983L108.228 125.961L108.224 125.956L108.223 125.954L108.222 125.954C108.222 125.954 108.222 125.954 108.196 125.974L108.222 125.954L107.973 125.626L107.797 125.999L100.989 140.473H91.8475V124.997C93.3839 124.641 94.4345 123.918 95.131 122.891C95.8506 121.83 96.1745 120.471 96.3033 118.926L96.3226 118.695L96.0931 118.658L85.397 116.973C90.9501 108.436 95.6575 98.0729 99.5216 87.4844ZM14.9394 125.35V67.2297H20.042V76.143C20.042 90.3284 20.0401 108.576 14.9394 125.35ZM27.2905 60.4026V29.4853H31.6291V60.4026H27.2905ZM39.1324 109.088V67.2297H44.2349V111.674H44.1029C44.007 111.674 43.9108 111.694 43.8263 111.716C43.7581 111.734 43.6851 111.757 43.6161 111.779C43.5994 111.784 43.583 111.789 43.567 111.794C43.3909 111.849 43.233 111.892 43.0843 111.892H39.901C39.7622 111.892 39.6644 111.854 39.585 111.784C39.4995 111.709 39.4149 111.577 39.343 111.356C39.1973 110.906 39.1324 110.179 39.1324 109.088Z" stroke="url(#paint0_diamond_417_116)" stroke-width="0.5"/>
<mask id="path-2-outside-1_417_116" maskUnits="userSpaceOnUse" x="194.187" y="-0.322754" width="115" height="215" fill="black">
<rect fill="white" x="194.187" y="-0.322754" width="115" height="215"/>
<path d="M200.023 28.0827L199.056 21.5144H221.786V0.677246L236.053 3.16866C235.811 6.11303 234.723 8.37796 231.821 9.05742V21.5144H241.01L245.967 9.51041C245.967 9.51041 251.892 17.8906 255.519 24.4588C255.277 26.9502 254.068 28.0827 252.375 28.0827H231.821V43.0311H237.987L242.824 31.2536C242.824 31.2536 248.627 39.6338 252.254 45.9755C251.892 48.4669 250.803 49.5994 249.111 49.5994H204.134L203.166 43.0311H221.786V28.0827H200.023ZM286.833 64.5478H264.224C267.609 72.2485 272.325 77.9108 278.007 81.9876C281.393 76.7783 284.536 71.116 286.833 64.5478ZM273.171 135.893V120.491H231.458V135.893H273.171ZM231.458 180.964H273.171V164.43H231.458V180.964ZM273.171 157.862V142.461H231.458V157.862H273.171ZM222.995 68.6246H214.29V77.6843C214.29 80.6287 214.169 84.026 213.927 87.6499H222.995V68.6246ZM240.043 68.6246H231.458V87.6499H240.043V68.6246ZM295.66 51.6378L303.398 63.8683C302.43 65.9067 301.1 66.5862 298.32 66.5862C295.297 74.5134 291.549 81.0816 286.954 86.9704C293.242 89.4618 300.254 91.0473 307.871 91.7267V94.2181C304.123 96.2566 301.826 102.145 300.98 110.978C299.65 110.526 298.199 110.073 296.869 109.393C298.682 111.884 300.375 114.602 301.826 116.867C301.584 119.359 300.375 120.491 298.561 120.491H284.294V180.964H288.043L294.209 167.828C294.209 167.828 301.221 176.887 305.695 183.909C305.332 186.4 304.123 187.533 302.43 187.533H284.294V208.143C284.294 209.276 280.667 213.353 275.106 213.353H273.171V187.533H200.385L199.297 180.964H220.698V120.491H207.398L206.673 116.414C204.134 121.171 200.748 125.7 196.275 129.551L195.187 126.606C204.013 111.658 204.859 93.7652 204.859 77.9108V53.6762L215.861 62.0564H238.955L243.791 52.7702L253.947 67.0392C253.342 68.3981 251.65 70.2101 249.715 70.8895V95.3506C249.594 96.936 244.879 101.013 241.735 101.013H240.043V94.2181H213.443C212.597 100.786 210.904 107.581 208.003 113.923H284.294L288.284 105.316C284.294 103.051 280.788 100.333 277.645 97.1625C268.698 104.41 258.179 109.393 246.088 111.884L245.363 108.261C255.519 104.184 264.466 98.0685 271.841 89.9148C267.488 83.3466 263.982 75.1929 261.201 64.5478H257.453L256.365 57.9795H287.68L291.549 51.6378H291.307C284.657 51.6378 283.811 47.7874 283.811 38.0483V20.6085H269.786V20.835C269.786 31.2536 267.851 49.8258 253.101 59.7915L252.012 56.8471C259.75 45.0695 260.355 31.4801 260.355 21.0615V5.66006L271.478 14.0402H282.723L287.801 4.5276L297.352 19.476C296.506 21.0615 294.813 21.9674 293.121 22.6469V34.4245C293.121 36.4629 293.362 37.1423 294.451 37.1423H299.408C299.77 37.1423 300.617 37.1423 301.1 36.9159C301.584 36.9159 302.551 36.6894 303.156 36.2364H304.244L304.728 36.4629C307.146 38.2748 308.113 39.4072 308.113 42.8046C308.113 49.8258 305.09 51.6378 295.781 51.6378H295.66Z"/>
</mask>
<path d="M200.023 28.0827L199.056 21.5144H221.786V0.677246L236.053 3.16866C235.811 6.11303 234.723 8.37796 231.821 9.05742V21.5144H241.01L245.967 9.51041C245.967 9.51041 251.892 17.8906 255.519 24.4588C255.277 26.9502 254.068 28.0827 252.375 28.0827H231.821V43.0311H237.987L242.824 31.2536C242.824 31.2536 248.627 39.6338 252.254 45.9755C251.892 48.4669 250.803 49.5994 249.111 49.5994H204.134L203.166 43.0311H221.786V28.0827H200.023ZM286.833 64.5478H264.224C267.609 72.2485 272.325 77.9108 278.007 81.9876C281.393 76.7783 284.536 71.116 286.833 64.5478ZM273.171 135.893V120.491H231.458V135.893H273.171ZM231.458 180.964H273.171V164.43H231.458V180.964ZM273.171 157.862V142.461H231.458V157.862H273.171ZM222.995 68.6246H214.29V77.6843C214.29 80.6287 214.169 84.026 213.927 87.6499H222.995V68.6246ZM240.043 68.6246H231.458V87.6499H240.043V68.6246ZM295.66 51.6378L303.398 63.8683C302.43 65.9067 301.1 66.5862 298.32 66.5862C295.297 74.5134 291.549 81.0816 286.954 86.9704C293.242 89.4618 300.254 91.0473 307.871 91.7267V94.2181C304.123 96.2566 301.826 102.145 300.98 110.978C299.65 110.526 298.199 110.073 296.869 109.393C298.682 111.884 300.375 114.602 301.826 116.867C301.584 119.359 300.375 120.491 298.561 120.491H284.294V180.964H288.043L294.209 167.828C294.209 167.828 301.221 176.887 305.695 183.909C305.332 186.4 304.123 187.533 302.43 187.533H284.294V208.143C284.294 209.276 280.667 213.353 275.106 213.353H273.171V187.533H200.385L199.297 180.964H220.698V120.491H207.398L206.673 116.414C204.134 121.171 200.748 125.7 196.275 129.551L195.187 126.606C204.013 111.658 204.859 93.7652 204.859 77.9108V53.6762L215.861 62.0564H238.955L243.791 52.7702L253.947 67.0392C253.342 68.3981 251.65 70.2101 249.715 70.8895V95.3506C249.594 96.936 244.879 101.013 241.735 101.013H240.043V94.2181H213.443C212.597 100.786 210.904 107.581 208.003 113.923H284.294L288.284 105.316C284.294 103.051 280.788 100.333 277.645 97.1625C268.698 104.41 258.179 109.393 246.088 111.884L245.363 108.261C255.519 104.184 264.466 98.0685 271.841 89.9148C267.488 83.3466 263.982 75.1929 261.201 64.5478H257.453L256.365 57.9795H287.68L291.549 51.6378H291.307C284.657 51.6378 283.811 47.7874 283.811 38.0483V20.6085H269.786V20.835C269.786 31.2536 267.851 49.8258 253.101 59.7915L252.012 56.8471C259.75 45.0695 260.355 31.4801 260.355 21.0615V5.66006L271.478 14.0402H282.723L287.801 4.5276L297.352 19.476C296.506 21.0615 294.813 21.9674 293.121 22.6469V34.4245C293.121 36.4629 293.362 37.1423 294.451 37.1423H299.408C299.77 37.1423 300.617 37.1423 301.1 36.9159C301.584 36.9159 302.551 36.6894 303.156 36.2364H304.244L304.728 36.4629C307.146 38.2748 308.113 39.4072 308.113 42.8046C308.113 49.8258 305.09 51.6378 295.781 51.6378H295.66Z" stroke="url(#paint1_diamond_417_116)" mask="url(#path-2-outside-1_417_116)"/>
<defs>
<radialGradient id="paint0_diamond_417_116" cx="0" cy="0" r="1" gradientUnits="userSpaceOnUse" gradientTransform="translate(65.6502 100.502) rotate(92.6246) scale(109.061 80.4902)">
<stop stop-color="#77111B"/>
<stop offset="1" stop-color="#B10339"/>
</radialGradient>
<radialGradient id="paint1_diamond_417_116" cx="0" cy="0" r="1" gradientUnits="userSpaceOnUse" gradientTransform="translate(256.382 100.253) rotate(92.3958) scale(113.198 76.2787)">
<stop stop-color="#77111B"/>
<stop offset="1" stop-color="#B10339"/>
</radialGradient>
</defs>
</svg>
