<svg width="37" height="88" viewBox="0 0 37 88" fill="none" xmlns="http://www.w3.org/2000/svg">
<path d="M3.212 1.66981L3.536 1.38181C12.212 2.42581 10.268 8.36581 7.28 6.60181C6.668 4.83781 4.796 2.82181 3.212 1.66981ZM0.44 9.73381L0.728 9.40981C8.9 10.1658 7.1 15.9258 4.148 14.1978C3.608 12.6138 1.844 10.7418 0.44 9.73381ZM11.204 6.78181L11.852 6.92581C10.196 11.5338 7.064 20.1018 6.524 21.9378C6.164 23.1258 5.876 24.3138 5.912 25.1778C5.948 26.9058 7.1 28.4538 6.992 31.4058C6.92 33.0618 6.056 34.0698 4.724 34.0698C3.968 34.0698 3.428 33.4578 3.284 32.2698C3.824 28.5258 3.644 25.5738 2.816 25.0338C2.312 24.6738 1.772 24.5658 0.98 24.4938V23.7378H2.6C3.068 23.7378 3.212 23.7018 3.608 22.9818C4.328 21.6858 4.328 21.6858 11.204 6.78181ZM21.14 23.2698L21.572 22.9458C34.928 28.7058 33.488 35.6178 30.104 33.5298C28.52 30.4338 24.236 25.9698 21.14 23.2698ZM20.96 8.40181V12.9018C20.96 14.8458 20.816 16.7898 20.528 18.5898H25.892V8.40181H20.96ZM29.492 18.5898L31.148 16.2138C31.148 16.2138 33.092 17.8698 34.136 19.0578C34.064 19.4538 33.74 19.6338 33.272 19.6338H20.348C19.088 25.8618 15.524 31.1538 6.56 34.2138L6.272 33.6738C13.508 30.2538 16.424 25.3578 17.504 19.6338H9.116L8.828 18.5898H17.684C17.936 16.7898 18.044 14.8458 18.044 12.9018V8.40181H12.104L11.816 7.35781H18.044V0.985806L22.256 1.41781C22.184 1.92181 21.896 2.28181 20.96 2.42581V7.35781H25.532L27.08 5.73781L30.212 8.18581C29.996 8.47381 29.42 8.76181 28.7 8.90581V18.5898H29.492ZM1.52 86.1058L1.34 85.4938C5.732 84.5218 10.556 82.3978 12.86 80.5978L16.028 82.9018C15.74 83.2258 15.128 83.2978 14.264 83.0458C11.24 84.4498 6.236 85.6738 1.52 86.1058ZM18.8 82.0378L18.908 81.4258C36.62 82.0018 31.904 87.6178 28.88 85.6738C26.864 84.3778 23.444 82.9738 18.8 82.0378ZM9.98 79.0858H23.588V77.0338H9.98V79.0858ZM22.004 68.1778H12.824C12.248 68.8618 11.636 69.4378 10.952 70.0498H23.372L23.552 69.8698C22.976 69.3298 22.472 68.7898 22.004 68.1778ZM12.932 64.9378V67.1338H21.104V64.9378H12.932ZM12.932 61.8058V63.8938H21.104V61.8058H12.932ZM9.98 72.9298H23.588V71.0938H9.98V72.9298ZM9.98 73.9738V75.9898H23.588V73.9738H9.98ZM24.596 68.8618L24.992 69.1498C27.584 70.4458 31.04 71.3458 33.992 71.7778L33.956 72.1738C32.912 72.3898 32.192 73.2538 31.904 74.5858C29.996 73.9378 28.088 73.0378 26.36 71.9938V80.5618C26.324 80.8138 24.956 81.4258 24.02 81.4258H23.588V80.1298H9.98V80.9218C9.98 81.1378 9.08 81.7858 7.748 81.7858H7.28V72.5338C5.156 73.7218 2.78 74.6578 0.512 75.3058L0.224 74.8018C3.788 73.2538 7.316 70.7338 9.332 68.1778H0.908L0.584 67.1338H10.16V64.9378H5.336L5.012 63.8938H10.16V61.8058H4.616L4.328 60.7618H10.16V57.9538L13.904 58.3498C13.832 58.7458 13.58 59.0338 12.932 59.1418V60.7618H21.104V57.9538L24.848 58.3498C24.812 58.7458 24.56 59.0338 23.912 59.1418V60.7618H26.288L27.728 59.0698C27.728 59.0698 28.232 59.4298 28.844 59.8978C29.024 59.2858 29.24 58.4938 29.348 57.8098H5.228C5.084 59.4298 4.22 60.5098 3.212 60.9418C2.312 61.3738 1.052 61.1938 0.728 60.2578C0.476 59.3218 1.052 58.6738 1.916 58.3138C3.068 57.9178 4.328 56.6938 4.292 55.2538L4.904 55.2178C5.084 55.7578 5.156 56.2978 5.228 56.7658H17C16.928 56.7298 16.82 56.6938 16.748 56.6218C16.388 55.3258 15.2 53.7778 14.12 52.9138L14.48 52.6258C19.808 53.0218 19.988 55.9378 18.62 56.7658H29.204L30.752 55.1458L33.596 57.9178C33.344 58.2058 32.948 58.2418 32.3 58.2778C31.58 58.9978 30.428 59.8258 29.42 60.3658C29.78 60.6538 30.104 60.9418 30.428 61.2298C30.32 61.6258 29.996 61.8058 29.492 61.8058H23.912V63.8938H25.928L27.296 62.3818C27.296 62.3818 28.88 63.4618 29.852 64.3618C29.78 64.7578 29.42 64.9378 28.988 64.9378H23.912V67.1338H28.772L30.356 65.3698C30.356 65.3698 32.156 66.5938 33.308 67.6018C33.236 67.9978 32.876 68.1778 32.408 68.1778H23.264C23.66 68.4298 24.092 68.6818 24.524 68.9338L24.596 68.8618Z" fill="url(#paint0_linear_367_168)"/>
<defs>
<linearGradient id="paint0_linear_367_168" x1="17" y1="-10.8462" x2="17" y2="83.1538" gradientUnits="userSpaceOnUse">
<stop offset="0.025" stop-color="#D0AF79"/>
<stop offset="0.92" stop-color="#877250"/>
</linearGradient>
</defs>
</svg>
