<svg width="38" height="87" viewBox="0 0 38 87" fill="none" xmlns="http://www.w3.org/2000/svg">
<path d="M4.968 0.344662L5.292 0.0926607C13.572 1.89266 11.34 7.79666 8.388 5.81666C7.992 3.94466 6.336 1.67666 4.968 0.344662ZM14.688 12.6927L17.46 14.9247C17.172 15.2127 16.632 15.3927 15.984 15.1407C15.012 16.0767 13.824 16.9767 12.6 17.6607C18.468 20.2167 16.74 24.2847 14.256 22.7727C13.536 21.0807 11.628 19.0287 9.936 17.5527V32.3127C9.936 32.5647 8.964 33.3207 7.56 33.3207H7.056V18.7767C5.22 20.5407 3.204 22.0527 1.188 23.2767L0.756 22.8807C5.256 19.1727 9.684 13.1607 11.7 8.26466H1.548L1.224 7.22066H11.628L13.428 5.49266L16.38 8.40866C16.056 8.69666 15.66 8.76866 14.796 8.84066C13.644 11.1447 11.916 13.5567 9.936 15.8247V16.7607C10.548 16.9407 11.088 17.0487 11.592 17.2287C12.6 16.1127 13.752 14.4567 14.688 12.6927ZM31.968 2.54066L35.028 5.20466C34.74 5.52866 34.272 5.70866 33.444 5.85266C33.156 21.0807 32.508 29.0007 30.672 31.2687C29.556 32.5647 28.008 33.1407 26.244 33.1407C26.28 32.1687 26.136 31.3767 25.668 30.9807C25.128 30.4767 23.724 30.0807 22.356 29.7927L22.392 29.1807C23.832 29.3247 26.172 29.5407 26.964 29.5407C27.648 29.5407 27.936 29.4327 28.332 29.0007C29.808 27.5967 30.348 19.2087 30.636 5.42066H24.552C23.76 19.6407 22.176 28.4967 12.096 33.2847L11.664 32.7447C19.62 27.8127 20.88 18.2367 21.42 5.42066H15.3L14.976 4.34066H30.24L31.968 2.54066ZM2.52 85.3567L2.34 84.7447C6.732 83.7727 11.556 81.6487 13.86 79.8487L17.028 82.1527C16.74 82.4767 16.128 82.5487 15.264 82.2967C12.24 83.7007 7.236 84.9247 2.52 85.3567ZM19.8 81.2887L19.908 80.6767C37.62 81.2527 32.904 86.8687 29.88 84.9247C27.864 83.6287 24.444 82.2247 19.8 81.2887ZM10.98 78.3367H24.588V76.2847H10.98V78.3367ZM23.004 67.4287H13.824C13.248 68.1127 12.636 68.6887 11.952 69.3007H24.372L24.552 69.1207C23.976 68.5807 23.472 68.0407 23.004 67.4287ZM13.932 64.1887V66.3847H22.104V64.1887H13.932ZM13.932 61.0567V63.1447H22.104V61.0567H13.932ZM10.98 72.1807H24.588V70.3447H10.98V72.1807ZM10.98 73.2247V75.2407H24.588V73.2247H10.98ZM25.596 68.1127L25.992 68.4007C28.584 69.6967 32.04 70.5967 34.992 71.0287L34.956 71.4247C33.912 71.6407 33.192 72.5047 32.904 73.8367C30.996 73.1887 29.088 72.2887 27.36 71.2447V79.8127C27.324 80.0647 25.956 80.6767 25.02 80.6767H24.588V79.3807H10.98V80.1727C10.98 80.3887 10.08 81.0367 8.748 81.0367H8.28V71.7847C6.156 72.9727 3.78 73.9087 1.512 74.5567L1.224 74.0527C4.788 72.5047 8.316 69.9847 10.332 67.4287H1.908L1.584 66.3847H11.16V64.1887H6.336L6.012 63.1447H11.16V61.0567H5.616L5.328 60.0127H11.16V57.2047L14.904 57.6007C14.832 57.9967 14.58 58.2847 13.932 58.3927V60.0127H22.104V57.2047L25.848 57.6007C25.812 57.9967 25.56 58.2847 24.912 58.3927V60.0127H27.288L28.728 58.3207C28.728 58.3207 29.232 58.6807 29.844 59.1487C30.024 58.5367 30.24 57.7447 30.348 57.0607H6.228C6.084 58.6807 5.22 59.7607 4.212 60.1927C3.312 60.6247 2.052 60.4447 1.728 59.5087C1.476 58.5727 2.052 57.9247 2.916 57.5647C4.068 57.1687 5.328 55.9447 5.292 54.5047L5.904 54.4687C6.084 55.0087 6.156 55.5487 6.228 56.0167H18C17.928 55.9807 17.82 55.9447 17.748 55.8727C17.388 54.5767 16.2 53.0287 15.12 52.1647L15.48 51.8767C20.808 52.2727 20.988 55.1887 19.62 56.0167H30.204L31.752 54.3967L34.596 57.1687C34.344 57.4567 33.948 57.4927 33.3 57.5287C32.58 58.2487 31.428 59.0767 30.42 59.6167C30.78 59.9047 31.104 60.1927 31.428 60.4807C31.32 60.8767 30.996 61.0567 30.492 61.0567H24.912V63.1447H26.928L28.296 61.6327C28.296 61.6327 29.88 62.7127 30.852 63.6127C30.78 64.0087 30.42 64.1887 29.988 64.1887H24.912V66.3847H29.772L31.356 64.6207C31.356 64.6207 33.156 65.8447 34.308 66.8527C34.236 67.2487 33.876 67.4287 33.408 67.4287H24.264C24.66 67.6807 25.092 67.9327 25.524 68.1847L25.596 68.1127Z" fill="url(#paint0_linear_367_156)"/>
<defs>
<linearGradient id="paint0_linear_367_156" x1="18" y1="-11.5953" x2="18" y2="97.5865" gradientUnits="userSpaceOnUse">
<stop offset="0.025" stop-color="#D0AF79"/>
<stop offset="1" stop-color="#877250"/>
</linearGradient>
</defs>
</svg>
